<svg xmlns="http://www.w3.org/2000/svg" xmlns:xlink="http://www.w3.org/1999/xlink" width="2000" zoomAndPan="magnify" viewBox="0 0 1500 1499.999933" height="2000" preserveAspectRatio="xMidYMid meet" version="1.0"><defs><g/><clipPath id="8d33f3ba15"><path d="M 553.570312 322 L 649 322 L 649 417 L 553.570312 417 Z M 553.570312 322 " clip-rule="nonzero"/></clipPath><clipPath id="7a056c13c9"><path d="M 647 322 L 969.070312 322 L 969.070312 417 L 647 417 Z M 647 322 " clip-rule="nonzero"/></clipPath><clipPath id="a630ac09cc"><path d="M 553.570312 415 L 932 415 L 932 813.234375 L 553.570312 813.234375 Z M 553.570312 415 " clip-rule="nonzero"/></clipPath><clipPath id="c5aafcda46"><rect x="0" width="616" y="0" height="353"/></clipPath></defs><path fill="#744723" d="M 742.546875 467.800781 L 729.203125 481.152344 L 742.546875 494.5 L 755.894531 481.152344 L 742.546875 467.800781 " fill-opacity="1" fill-rule="nonzero"/><path fill="#744723" d="M 835.984375 587.933594 L 849.335938 574.585938 L 835.984375 561.238281 L 822.636719 574.585938 L 835.984375 587.933594 " fill-opacity="1" fill-rule="nonzero"/><path fill="#744723" d="M 649.113281 561.238281 L 635.761719 574.585938 L 649.113281 587.933594 L 662.460938 574.585938 L 649.113281 561.238281 " fill-opacity="1" fill-rule="nonzero"/><g clip-path="url(#8d33f3ba15)"><path fill="#744723" d="M 572.65625 369.507812 C 572.65625 353.894531 585.359375 341.195312 600.972656 341.195312 C 616.585938 341.195312 629.289062 353.894531 629.289062 369.507812 C 629.289062 385.121094 616.585938 397.824219 600.972656 397.824219 C 585.359375 397.824219 572.65625 385.121094 572.65625 369.507812 Z M 648.164062 369.507812 C 648.164062 343.488281 626.992188 322.316406 600.972656 322.316406 C 574.953125 322.316406 553.78125 343.488281 553.78125 369.507812 C 553.78125 395.527344 574.953125 416.699219 600.972656 416.699219 C 626.992188 416.699219 648.164062 395.527344 648.164062 369.507812 " fill-opacity="1" fill-rule="nonzero"/></g><path fill="#744723" d="M 610.410156 369.507812 C 610.410156 364.304688 606.175781 360.070312 600.972656 360.070312 C 595.769531 360.070312 591.535156 364.304688 591.535156 369.507812 C 591.535156 374.710938 595.769531 378.945312 600.972656 378.945312 C 606.175781 378.945312 610.410156 374.710938 610.410156 369.507812 " fill-opacity="1" fill-rule="nonzero"/><g clip-path="url(#7a056c13c9)"><path fill="#744723" d="M 647.152344 416.699219 L 921.878906 416.699219 C 947.898438 416.699219 969.070312 395.527344 969.070312 369.507812 C 969.070312 343.488281 947.898438 322.316406 921.878906 322.316406 L 647.152344 322.316406 C 659.410156 334.316406 667.042969 351.039062 667.042969 369.507812 C 667.042969 387.980469 659.410156 404.699219 647.152344 416.699219 " fill-opacity="1" fill-rule="nonzero"/></g><path fill="#744723" d="M 629.289062 690.414062 L 629.289062 671.539062 L 648.164062 671.539062 L 648.164062 690.414062 Z M 709.179688 661.347656 L 729.203125 641.324219 L 675.8125 587.933594 L 655.789062 607.957031 C 654.019531 609.726562 651.617188 610.71875 649.113281 610.71875 C 646.613281 610.71875 644.210938 609.726562 642.441406 607.957031 L 615.742188 581.257812 C 613.972656 579.488281 612.976562 577.089844 612.976562 574.585938 C 612.976562 572.078125 613.972656 569.683594 615.742188 567.910156 L 642.441406 541.214844 C 646.125 537.527344 652.101562 537.527344 655.789062 541.214844 L 675.8125 561.238281 L 729.203125 507.84375 L 709.179688 487.824219 C 707.410156 486.050781 706.414062 483.65625 706.414062 481.152344 C 706.414062 478.644531 707.410156 476.25 709.179688 474.472656 L 735.875 447.78125 C 739.5625 444.09375 745.535156 444.09375 749.222656 447.78125 L 775.917969 474.472656 C 777.6875 476.25 778.683594 478.644531 778.683594 481.152344 C 778.683594 483.65625 777.6875 486.050781 775.917969 487.824219 L 755.894531 507.84375 L 809.285156 561.238281 L 829.308594 541.214844 C 832.996094 537.527344 838.972656 537.527344 842.65625 541.214844 L 869.355469 567.910156 C 871.125 569.683594 872.121094 572.078125 872.121094 574.585938 C 872.121094 577.089844 871.125 579.488281 869.355469 581.257812 L 842.65625 607.957031 C 840.886719 609.726562 838.484375 610.71875 835.984375 610.71875 C 833.480469 610.71875 831.078125 609.726562 829.308594 607.957031 L 809.285156 587.933594 L 755.894531 641.324219 L 775.917969 661.347656 C 777.6875 663.117188 778.683594 665.519531 778.683594 668.019531 C 778.683594 670.523438 777.6875 672.925781 775.917969 674.695312 L 749.222656 701.390625 C 745.535156 705.078125 739.5625 705.078125 735.875 701.390625 L 709.179688 674.695312 C 707.410156 672.925781 706.414062 670.523438 706.414062 668.019531 C 706.414062 665.519531 707.410156 663.117188 709.179688 661.347656 Z M 667.042969 652.660156 L 667.042969 633.785156 L 685.917969 633.785156 L 685.917969 652.660156 Z M 667.042969 511.085938 L 667.042969 492.207031 L 685.917969 492.207031 L 685.917969 511.085938 Z M 629.289062 473.332031 L 629.289062 454.453125 L 648.164062 454.453125 L 648.164062 473.332031 Z M 855.808594 454.453125 L 855.808594 473.332031 L 836.933594 473.332031 L 836.933594 454.453125 Z M 818.054688 492.207031 L 818.054688 511.085938 L 799.179688 511.085938 L 799.179688 492.207031 Z M 818.054688 633.785156 L 818.054688 652.660156 L 799.179688 652.660156 L 799.179688 633.785156 Z M 855.808594 662.097656 L 855.808594 680.976562 L 836.933594 680.976562 L 836.933594 662.097656 Z M 637.9375 728.167969 L 847.160156 728.167969 C 851.144531 704.488281 869.882812 685.75 893.5625 681.765625 L 893.5625 435.578125 L 600.972656 435.578125 C 597.765625 435.578125 594.617188 435.335938 591.535156 434.894531 L 591.535156 681.765625 C 615.214844 685.75 633.953125 704.488281 637.9375 728.167969 " fill-opacity="1" fill-rule="nonzero"/><path fill="#744723" d="M 755.894531 668.019531 L 742.546875 654.667969 L 729.203125 668.019531 L 742.546875 681.367188 L 755.894531 668.019531 " fill-opacity="1" fill-rule="nonzero"/><path fill="#744723" d="M 729.203125 574.585938 L 742.546875 561.238281 L 755.894531 574.585938 L 742.546875 587.933594 Z M 742.546875 521.191406 L 689.160156 574.585938 L 742.546875 627.976562 L 795.9375 574.585938 L 742.546875 521.191406 " fill-opacity="1" fill-rule="nonzero"/><g clip-path="url(#a630ac09cc)"><path fill="#744723" d="M 853.449219 783.050781 C 849.171875 786.039062 846.371094 790.988281 846.371094 796.597656 C 846.371094 805.714844 853.769531 813.113281 862.886719 813.113281 C 872.007812 813.113281 879.40625 805.714844 879.40625 796.597656 C 879.40625 790.988281 876.601562 786.039062 872.328125 783.050781 L 872.328125 765.921875 L 903 765.921875 L 903 783.050781 C 898.726562 786.039062 895.921875 790.988281 895.921875 796.597656 C 895.921875 805.714844 903.320312 813.113281 912.441406 813.113281 C 921.558594 813.113281 928.957031 805.714844 928.957031 796.597656 C 928.957031 790.988281 926.15625 786.039062 921.878906 783.050781 L 921.878906 765.921875 L 931.316406 765.921875 L 931.316406 434.894531 C 928.234375 435.335938 925.085938 435.578125 921.878906 435.578125 L 912.441406 435.578125 L 912.441406 690.414062 C 912.441406 695.625 908.214844 699.851562 903 699.851562 C 882.183594 699.851562 865.246094 716.789062 865.246094 737.605469 C 865.246094 742.816406 861.023438 747.042969 855.808594 747.042969 L 629.289062 747.042969 C 624.074219 747.042969 619.851562 742.816406 619.851562 737.605469 C 619.851562 716.789062 602.914062 699.851562 582.097656 699.851562 C 576.882812 699.851562 572.65625 695.625 572.65625 690.414062 L 572.65625 429.191406 C 565.582031 425.820312 559.199219 421.226562 553.78125 415.6875 L 553.78125 765.921875 L 563.21875 765.921875 L 563.21875 783.050781 C 558.941406 786.039062 556.140625 790.988281 556.140625 796.597656 C 556.140625 805.714844 563.539062 813.113281 572.65625 813.113281 C 581.777344 813.113281 589.175781 805.714844 589.175781 796.597656 C 589.175781 790.988281 586.371094 786.039062 582.097656 783.050781 L 582.097656 765.921875 L 610.410156 765.921875 L 610.410156 783.050781 C 606.132812 786.039062 603.332031 790.988281 603.332031 796.597656 C 603.332031 805.714844 610.730469 813.113281 619.851562 813.113281 C 628.96875 813.113281 636.367188 805.714844 636.367188 796.597656 C 636.367188 790.988281 633.566406 786.039062 629.289062 783.050781 L 629.289062 765.921875 L 657.601562 765.921875 L 657.601562 783.050781 C 653.328125 786.039062 650.523438 790.988281 650.523438 796.597656 C 650.523438 805.714844 657.921875 813.113281 667.042969 813.113281 C 676.160156 813.113281 683.558594 805.714844 683.558594 796.597656 C 683.558594 790.988281 680.757812 786.039062 676.480469 783.050781 L 676.480469 765.921875 L 707.15625 765.921875 L 707.15625 783.050781 C 702.878906 786.039062 700.074219 790.988281 700.074219 796.597656 C 700.074219 805.714844 707.472656 813.113281 716.59375 813.113281 C 725.714844 813.113281 733.109375 805.714844 733.109375 796.597656 C 733.109375 790.988281 730.308594 786.039062 726.03125 783.050781 L 726.03125 765.921875 L 759.066406 765.921875 L 759.066406 783.050781 C 754.789062 786.039062 751.988281 790.988281 751.988281 796.597656 C 751.988281 805.714844 759.382812 813.113281 768.503906 813.113281 C 777.625 813.113281 785.023438 805.714844 785.023438 796.597656 C 785.023438 790.988281 782.21875 786.039062 777.941406 783.050781 L 777.941406 765.921875 L 806.257812 765.921875 L 806.257812 783.050781 C 801.980469 786.039062 799.179688 790.988281 799.179688 796.597656 C 799.179688 805.714844 806.574219 813.113281 815.695312 813.113281 C 824.816406 813.113281 832.214844 805.714844 832.214844 796.597656 C 832.214844 790.988281 829.410156 786.039062 825.132812 783.050781 L 825.132812 765.921875 L 853.449219 765.921875 L 853.449219 783.050781 " fill-opacity="1" fill-rule="nonzero"/></g><g transform="matrix(1, 0, 0, 1, 440, 828)"><g clip-path="url(#c5aafcda46)"><g fill="#744723" fill-opacity="1"><g transform="translate(85.813973, 123.418082)"><g><path d="M 17.671875 -68.125 C 17.671875 -65.226562 19.03125 -62.757812 21.75 -60.71875 C 24.476562 -58.675781 28.0625 -56.929688 32.5 -55.484375 C 36.9375 -54.035156 41.828125 -52.695312 47.171875 -51.46875 C 52.523438 -50.25 57.851562 -48.9375 63.15625 -47.53125 C 68.46875 -46.125 73.363281 -44.445312 77.84375 -42.5 C 82.332031 -40.550781 85.914062 -38.171875 88.59375 -35.359375 C 91.269531 -32.546875 92.609375 -29.144531 92.609375 -25.15625 C 92.609375 -20.4375 91.039062 -16.0625 87.90625 -12.03125 C 84.78125 -8 80.019531 -4.734375 73.625 -2.234375 C 67.238281 0.253906 59.195312 1.5 49.5 1.5 C 34.8125 1.5 23.75 -1.691406 16.3125 -8.078125 C 8.882812 -14.472656 5.171875 -24.425781 5.171875 -37.9375 L 16.859375 -36.71875 C 16.859375 -30.726562 17.71875 -25.875 19.4375 -22.15625 C 21.164062 -18.445312 23.523438 -15.617188 26.515625 -13.671875 C 29.503906 -11.722656 32.96875 -10.363281 36.90625 -9.59375 C 40.851562 -8.820312 45.050781 -8.4375 49.5 -8.4375 C 60.289062 -8.4375 68.425781 -9.769531 73.90625 -12.4375 C 79.394531 -15.113281 82.140625 -19.351562 82.140625 -25.15625 C 82.140625 -27.695312 80.800781 -29.847656 78.125 -31.609375 C 75.445312 -33.378906 71.863281 -34.898438 67.375 -36.171875 C 62.894531 -37.441406 58 -38.664062 52.6875 -39.84375 C 47.382812 -41.019531 42.054688 -42.332031 36.703125 -43.78125 C 31.359375 -45.238281 26.460938 -47.007812 22.015625 -49.09375 C 17.578125 -51.175781 14 -53.757812 11.28125 -56.84375 C 8.5625 -59.925781 7.203125 -63.6875 7.203125 -68.125 C 7.203125 -71.664062 7.878906 -75.113281 9.234375 -78.46875 C 10.597656 -81.820312 12.867188 -84.859375 16.046875 -87.578125 C 19.222656 -90.296875 23.503906 -92.445312 28.890625 -94.03125 C 34.285156 -95.613281 40.972656 -96.40625 48.953125 -96.40625 C 57.296875 -96.40625 64.207031 -95.335938 69.6875 -93.203125 C 75.175781 -91.078125 79.53125 -88.335938 82.75 -84.984375 C 85.96875 -81.628906 88.253906 -78.046875 89.609375 -74.234375 C 90.972656 -70.429688 91.65625 -66.8125 91.65625 -63.375 L 79.828125 -64.734375 C 79.828125 -72.429688 77.128906 -78.003906 71.734375 -81.453125 C 66.335938 -84.898438 58.742188 -86.625 48.953125 -86.625 C 39.066406 -86.625 31.378906 -85.125 25.890625 -82.125 C 20.410156 -79.132812 17.671875 -74.46875 17.671875 -68.125 Z M 17.671875 -68.125 "/></g></g></g><g fill="#744723" fill-opacity="1"><g transform="translate(183.586746, 123.418082)"><g><path d="M 75.46875 -12.234375 C 75.46875 -9.515625 76.035156 -7.25 77.171875 -5.4375 C 78.304688 -3.625 79.4375 -2.265625 80.5625 -1.359375 C 81.695312 -0.453125 82.265625 0 82.265625 0 L 65 0 L 65.140625 -18.359375 C 62.234375 -12.460938 58.351562 -7.703125 53.5 -4.078125 C 48.65625 -0.453125 43.015625 1.359375 36.578125 1.359375 C 29.960938 1.359375 24.660156 -0.289062 20.671875 -3.59375 C 16.679688 -6.90625 13.800781 -11.328125 12.03125 -16.859375 C 10.269531 -22.390625 9.34375 -28.554688 9.25 -35.359375 L 9.390625 -59.96875 C 9.390625 -62.6875 8.820312 -64.953125 7.6875 -66.765625 C 6.550781 -68.578125 5.414062 -69.9375 4.28125 -70.84375 C 3.144531 -71.75 2.578125 -72.203125 2.578125 -72.203125 L 26.375 -72.203125 C 26.375 -72.203125 25.832031 -71.75 24.75 -70.84375 C 23.664062 -69.9375 22.554688 -68.578125 21.421875 -66.765625 C 20.285156 -64.953125 19.71875 -62.6875 19.71875 -59.96875 L 19.71875 -34 C 19.71875 -29.46875 20.238281 -25.273438 21.28125 -21.421875 C 22.320312 -17.566406 24.066406 -14.457031 26.515625 -12.09375 C 28.960938 -9.738281 32.316406 -8.5625 36.578125 -8.5625 C 42.566406 -8.5625 47.691406 -9.785156 51.953125 -12.234375 C 56.210938 -14.679688 59.472656 -17.898438 61.734375 -21.890625 C 64.003906 -25.878906 65.140625 -30.273438 65.140625 -35.078125 L 65.140625 -59.96875 C 65.140625 -62.6875 64.59375 -64.953125 63.5 -66.765625 C 62.414062 -68.578125 61.304688 -69.9375 60.171875 -70.84375 C 59.035156 -71.75 58.46875 -72.203125 58.46875 -72.203125 L 82.265625 -72.203125 C 82.265625 -72.203125 81.695312 -71.75 80.5625 -70.84375 C 79.4375 -69.9375 78.304688 -68.578125 77.171875 -66.765625 C 76.035156 -64.953125 75.46875 -62.6875 75.46875 -59.96875 Z M 75.46875 -12.234375 "/></g></g></g><g fill="#744723" fill-opacity="1"><g transform="translate(269.528893, 123.418082)"><g><path d="M 49.640625 -73.5625 C 55.160156 -73.5625 59.617188 -72.019531 63.015625 -68.9375 C 66.421875 -65.863281 68.941406 -61.738281 70.578125 -56.5625 C 72.210938 -51.394531 73.117188 -45.6875 73.296875 -39.4375 L 62.953125 -40.515625 C 62.953125 -47.773438 62 -53.441406 60.09375 -57.515625 C 58.195312 -61.597656 54.710938 -63.640625 49.640625 -63.640625 C 43.742188 -63.640625 38.664062 -62.4375 34.40625 -60.03125 C 30.144531 -57.632812 26.859375 -54.441406 24.546875 -50.453125 C 22.234375 -46.460938 21.078125 -42.019531 21.078125 -37.125 L 20.9375 -12.234375 C 20.9375 -9.515625 21.503906 -7.25 22.640625 -5.4375 C 23.773438 -3.625 24.90625 -2.265625 26.03125 -1.359375 C 27.164062 -0.453125 27.734375 0 27.734375 0 L 3.8125 0 C 3.8125 0 4.375 -0.453125 5.5 -1.359375 C 6.632812 -2.265625 7.769531 -3.625 8.90625 -5.4375 C 10.039062 -7.25 10.609375 -9.515625 10.609375 -12.234375 L 10.609375 -59.828125 C 10.609375 -62.546875 10.039062 -64.8125 8.90625 -66.625 C 7.769531 -68.445312 6.632812 -69.8125 5.5 -70.71875 C 4.375 -71.625 3.8125 -72.078125 3.8125 -72.078125 L 21.078125 -72.078125 L 21.078125 -53.84375 C 23.972656 -59.738281 27.847656 -64.5 32.703125 -68.125 C 37.554688 -71.75 43.203125 -73.5625 49.640625 -73.5625 Z M 49.640625 -73.5625 "/></g></g></g><g fill="#744723" fill-opacity="1"><g transform="translate(346.088122, 123.418082)"><g><path d="M 62.015625 -72.078125 L 95.59375 -72.078125 C 88.34375 -68.804688 83.222656 -63.457031 80.234375 -56.03125 L 58.0625 0 L 54.9375 8.015625 C 53.03125 12.828125 50.304688 17 46.765625 20.53125 C 43.234375 24.070312 39.175781 26.816406 34.59375 28.765625 C 30.019531 30.710938 25.148438 31.6875 19.984375 31.6875 L 19.984375 26.515625 C 25.066406 26.515625 29.671875 25.109375 33.796875 22.296875 C 37.921875 19.484375 40.929688 15.769531 42.828125 11.15625 L 47.1875 0 L 37.53125 0 L 15.234375 -56.03125 C 12.328125 -63.457031 7.25 -68.804688 0 -72.078125 L 33.59375 -72.078125 L 27.734375 -69.625 C 26.015625 -68.894531 24.816406 -67.710938 24.140625 -66.078125 C 23.460938 -64.453125 23.4375 -62.78125 24.0625 -61.0625 L 45.5625 -7.484375 L 50.046875 -7.484375 L 71.53125 -61.0625 C 72.164062 -62.78125 72.117188 -64.453125 71.390625 -66.078125 C 70.660156 -67.710938 69.484375 -68.894531 67.859375 -69.625 Z M 62.015625 -72.078125 "/></g></g></g><g fill="#744723" fill-opacity="1"><g transform="translate(441.685145, 123.418082)"><g><path d="M 81.3125 -12.234375 C 81.3125 -10.148438 81.785156 -8.359375 82.734375 -6.859375 C 83.691406 -5.367188 84.757812 -4.101562 85.9375 -3.0625 C 87.113281 -2.019531 88.15625 -1.25 89.0625 -0.75 C 89.96875 -0.25 90.421875 0 90.421875 0 L 72.078125 0 L 70.984375 -13.1875 C 67.453125 -8.75 63.257812 -5.210938 58.40625 -2.578125 C 53.550781 0.046875 48.046875 1.359375 41.890625 1.359375 C 37.710938 1.359375 33.425781 0.90625 29.03125 0 C 24.632812 -0.90625 20.53125 -2.351562 16.71875 -4.34375 C 12.914062 -6.34375 9.859375 -8.925781 7.546875 -12.09375 C 5.234375 -15.269531 4.078125 -19.125 4.078125 -23.65625 C 4.078125 -27.738281 5.207031 -31.070312 7.46875 -33.65625 C 9.738281 -36.238281 12.753906 -38.164062 16.515625 -39.4375 C 20.285156 -40.707031 24.390625 -41.34375 28.828125 -41.34375 C 32.992188 -41.34375 37.226562 -41.09375 41.53125 -40.59375 C 45.84375 -40.09375 49.96875 -39.5 53.90625 -38.8125 C 57.851562 -38.132812 61.300781 -37.457031 64.25 -36.78125 C 67.195312 -36.101562 69.441406 -35.535156 70.984375 -35.078125 L 70.984375 -36.171875 C 70.984375 -44.691406 68.351562 -51.398438 63.09375 -56.296875 C 57.832031 -61.191406 50.765625 -63.640625 41.890625 -63.640625 C 36.359375 -63.640625 31.9375 -62.957031 28.625 -61.59375 C 25.3125 -60.238281 22.585938 -58.3125 20.453125 -55.8125 C 18.328125 -53.320312 16.359375 -50.359375 14.546875 -46.921875 L 10.0625 -49.765625 C 10.0625 -49.765625 10.285156 -50.554688 10.734375 -52.140625 C 11.191406 -53.734375 12.054688 -55.707031 13.328125 -58.0625 C 14.597656 -60.414062 16.410156 -62.769531 18.765625 -65.125 C 21.117188 -67.488281 24.175781 -69.484375 27.9375 -71.109375 C 31.707031 -72.742188 36.359375 -73.5625 41.890625 -73.5625 C 47.773438 -73.5625 52.894531 -72.8125 57.25 -71.3125 C 61.601562 -69.820312 65.5 -67.535156 68.9375 -64.453125 C 72.382812 -61.367188 75.304688 -57.492188 77.703125 -52.828125 C 80.109375 -48.160156 81.3125 -42.609375 81.3125 -36.171875 Z M 41.890625 -8.5625 C 47.234375 -8.5625 51.898438 -9.648438 55.890625 -11.828125 C 59.878906 -14.003906 63.097656 -16.722656 65.546875 -19.984375 C 67.992188 -23.253906 69.535156 -26.566406 70.171875 -29.921875 C 68.441406 -30.273438 65.878906 -30.722656 62.484375 -31.265625 C 59.085938 -31.816406 55.28125 -32.34375 51.0625 -32.84375 C 46.84375 -33.34375 42.601562 -33.613281 38.34375 -33.65625 C 34.082031 -33.695312 30.140625 -33.398438 26.515625 -32.765625 C 22.890625 -32.140625 19.988281 -31.007812 17.8125 -29.375 C 15.632812 -27.738281 14.546875 -25.425781 14.546875 -22.4375 C 14.546875 -19.257812 15.789062 -16.648438 18.28125 -14.609375 C 20.78125 -12.578125 24.113281 -11.0625 28.28125 -10.0625 C 32.457031 -9.0625 36.992188 -8.5625 41.890625 -8.5625 Z M 41.890625 -8.5625 "/></g></g></g><g fill="#744723" fill-opacity="1"><g transform="translate(6.03273, 258.41807)"><g><path d="M 114.640625 0 L 81.453125 0 C 81.453125 0 81.972656 -0.425781 83.015625 -1.28125 C 84.054688 -2.144531 85.253906 -3.234375 86.609375 -4.546875 C 87.972656 -5.867188 89.0625 -7.273438 89.875 -8.765625 C 90.695312 -10.265625 90.878906 -11.648438 90.421875 -12.921875 L 82.140625 -33.859375 L 31.40625 -33.859375 L 22.984375 -12.78125 C 22.617188 -11.507812 22.84375 -10.148438 23.65625 -8.703125 C 24.476562 -7.253906 25.546875 -5.867188 26.859375 -4.546875 C 28.171875 -3.234375 29.367188 -2.144531 30.453125 -1.28125 C 31.546875 -0.425781 32.09375 0 32.09375 0 L -1.09375 0 C -1.09375 0 -0.320312 -0.453125 1.21875 -1.359375 C 2.757812 -2.265625 4.570312 -3.738281 6.65625 -5.78125 C 8.75 -7.820312 10.65625 -10.5625 12.375 -14 L 40.65625 -85.265625 L 44.609375 -95.1875 L 68.9375 -95.1875 L 72.890625 -85.265625 L 101.171875 -14.140625 C 102.804688 -10.609375 104.6875 -7.820312 106.8125 -5.78125 C 108.945312 -3.738281 110.785156 -2.265625 112.328125 -1.359375 C 113.867188 -0.453125 114.640625 0 114.640625 0 Z M 35.359375 -43.78125 L 78.0625 -43.78125 L 61.59375 -85.265625 L 51.8125 -85.265625 Z M 35.359375 -43.78125 "/></g></g></g><g fill="#744723" fill-opacity="1"><g transform="translate(119.579717, 258.41807)"><g><path d="M 49.640625 -73.5625 C 55.160156 -73.5625 59.617188 -72.019531 63.015625 -68.9375 C 66.421875 -65.863281 68.941406 -61.738281 70.578125 -56.5625 C 72.210938 -51.394531 73.117188 -45.6875 73.296875 -39.4375 L 62.953125 -40.515625 C 62.953125 -47.773438 62 -53.441406 60.09375 -57.515625 C 58.195312 -61.597656 54.710938 -63.640625 49.640625 -63.640625 C 43.742188 -63.640625 38.664062 -62.4375 34.40625 -60.03125 C 30.144531 -57.632812 26.859375 -54.441406 24.546875 -50.453125 C 22.234375 -46.460938 21.078125 -42.019531 21.078125 -37.125 L 20.9375 -12.234375 C 20.9375 -9.515625 21.503906 -7.25 22.640625 -5.4375 C 23.773438 -3.625 24.90625 -2.265625 26.03125 -1.359375 C 27.164062 -0.453125 27.734375 0 27.734375 0 L 3.8125 0 C 3.8125 0 4.375 -0.453125 5.5 -1.359375 C 6.632812 -2.265625 7.769531 -3.625 8.90625 -5.4375 C 10.039062 -7.25 10.609375 -9.515625 10.609375 -12.234375 L 10.609375 -59.828125 C 10.609375 -62.546875 10.039062 -64.8125 8.90625 -66.625 C 7.769531 -68.445312 6.632812 -69.8125 5.5 -70.71875 C 4.375 -71.625 3.8125 -72.078125 3.8125 -72.078125 L 21.078125 -72.078125 L 21.078125 -53.84375 C 23.972656 -59.738281 27.847656 -64.5 32.703125 -68.125 C 37.554688 -71.75 43.203125 -73.5625 49.640625 -73.5625 Z M 49.640625 -73.5625 "/></g></g></g><g fill="#744723" fill-opacity="1"><g transform="translate(196.138946, 258.41807)"><g><path d="M 38.625 -63.640625 L 21.21875 -63.640625 L 21.078125 -12.234375 C 21.078125 -9.515625 21.644531 -7.25 22.78125 -5.4375 C 23.914062 -3.625 25.046875 -2.265625 26.171875 -1.359375 C 27.304688 -0.453125 27.875 0 27.875 0 L 10.75 0 L 10.875 -63.640625 L 4.078125 -63.640625 L 4.078125 -72.078125 L 10.875 -72.078125 L 10.875 -94.78125 L 21.21875 -94.78125 L 21.21875 -72.078125 L 45.421875 -72.078125 Z M 38.625 -63.640625 "/></g></g></g><g fill="#744723" fill-opacity="1"><g transform="translate(242.237666, 258.41807)"><g><path d="M 3.8125 0 C 3.8125 0 4.375 -0.453125 5.5 -1.359375 C 6.632812 -2.265625 7.769531 -3.625 8.90625 -5.4375 C 10.039062 -7.25 10.609375 -9.515625 10.609375 -12.234375 L 10.609375 -59.828125 C 10.609375 -62.546875 10.039062 -64.8125 8.90625 -66.625 C 7.769531 -68.445312 6.632812 -69.8125 5.5 -70.71875 C 4.375 -71.625 3.8125 -72.078125 3.8125 -72.078125 L 21.078125 -72.078125 L 20.9375 -12.234375 C 20.9375 -9.515625 21.503906 -7.25 22.640625 -5.4375 C 23.773438 -3.625 24.90625 -2.265625 26.03125 -1.359375 C 27.164062 -0.453125 27.734375 0 27.734375 0 Z M 15.640625 -79 C 13.640625 -79 12.300781 -79.859375 11.625 -81.578125 C 10.945312 -83.304688 10.609375 -85.394531 10.609375 -87.84375 C 10.609375 -90.289062 10.945312 -92.375 11.625 -94.09375 C 12.300781 -95.820312 13.640625 -96.6875 15.640625 -96.6875 C 17.628906 -96.6875 19.007812 -95.820312 19.78125 -94.09375 C 20.550781 -92.375 20.9375 -90.289062 20.9375 -87.84375 C 20.9375 -85.394531 20.550781 -83.304688 19.78125 -81.578125 C 19.007812 -79.859375 17.628906 -79 15.640625 -79 Z M 15.640625 -79 "/></g></g></g><g fill="#744723" fill-opacity="1"><g transform="translate(273.514092, 258.41807)"><g><path d="M 17 -51.265625 C 17 -49.179688 18.039062 -47.476562 20.125 -46.15625 C 22.207031 -44.84375 24.992188 -43.734375 28.484375 -42.828125 C 31.972656 -41.921875 35.78125 -41.082031 39.90625 -40.3125 C 44.03125 -39.539062 48.175781 -38.679688 52.34375 -37.734375 C 56.519531 -36.785156 60.328125 -35.582031 63.765625 -34.125 C 67.210938 -32.675781 70 -30.84375 72.125 -28.625 C 74.257812 -26.40625 75.328125 -23.617188 75.328125 -20.265625 C 75.328125 -18.453125 74.894531 -16.320312 74.03125 -13.875 C 73.175781 -11.425781 71.570312 -9.019531 69.21875 -6.65625 C 66.863281 -4.300781 63.375 -2.351562 58.75 -0.8125 C 54.125 0.726562 48.046875 1.5 40.515625 1.5 C 33.265625 1.5 26.960938 0.0703125 21.609375 -2.78125 C 16.265625 -5.644531 12.140625 -9.410156 9.234375 -14.078125 C 6.335938 -18.742188 4.890625 -23.75 4.890625 -29.09375 L 15.359375 -28.015625 C 15.359375 -23.484375 16.5625 -19.785156 18.96875 -16.921875 C 21.375 -14.066406 24.5 -11.957031 28.34375 -10.59375 C 32.195312 -9.238281 36.253906 -8.5625 40.515625 -8.5625 C 47.953125 -8.5625 53.867188 -9.691406 58.265625 -11.953125 C 62.660156 -14.222656 64.859375 -16.992188 64.859375 -20.265625 C 64.859375 -22.078125 63.816406 -23.570312 61.734375 -24.75 C 59.648438 -25.925781 56.863281 -26.898438 53.375 -27.671875 C 49.882812 -28.441406 46.078125 -29.210938 41.953125 -29.984375 C 37.828125 -30.753906 33.675781 -31.632812 29.5 -32.625 C 25.332031 -33.625 21.523438 -34.894531 18.078125 -36.4375 C 14.640625 -37.976562 11.851562 -39.925781 9.71875 -42.28125 C 7.59375 -44.644531 6.53125 -47.640625 6.53125 -51.265625 C 6.53125 -53.171875 7.117188 -55.390625 8.296875 -57.921875 C 9.472656 -60.460938 11.375 -62.910156 14 -65.265625 C 16.632812 -67.628906 20.082031 -69.601562 24.34375 -71.1875 C 28.601562 -72.769531 33.859375 -73.5625 40.109375 -73.5625 C 46.273438 -73.5625 51.535156 -72.742188 55.890625 -71.109375 C 60.242188 -69.484375 63.800781 -67.332031 66.5625 -64.65625 C 69.332031 -61.988281 71.347656 -59.046875 72.609375 -55.828125 C 73.878906 -52.609375 74.515625 -49.457031 74.515625 -46.375 L 64.046875 -47.59375 C 64.046875 -52.757812 62.140625 -56.722656 58.328125 -59.484375 C 54.523438 -62.253906 48.453125 -63.640625 40.109375 -63.640625 C 31.859375 -63.640625 25.941406 -62.390625 22.359375 -59.890625 C 18.785156 -57.398438 17 -54.523438 17 -51.265625 Z M 17 -51.265625 "/></g></g></g><g fill="#744723" fill-opacity="1"><g transform="translate(354.152864, 258.41807)"><g><path d="M 81.3125 -12.234375 C 81.3125 -10.148438 81.785156 -8.359375 82.734375 -6.859375 C 83.691406 -5.367188 84.757812 -4.101562 85.9375 -3.0625 C 87.113281 -2.019531 88.15625 -1.25 89.0625 -0.75 C 89.96875 -0.25 90.421875 0 90.421875 0 L 72.078125 0 L 70.984375 -13.1875 C 67.453125 -8.75 63.257812 -5.210938 58.40625 -2.578125 C 53.550781 0.046875 48.046875 1.359375 41.890625 1.359375 C 37.710938 1.359375 33.425781 0.90625 29.03125 0 C 24.632812 -0.90625 20.53125 -2.351562 16.71875 -4.34375 C 12.914062 -6.34375 9.859375 -8.925781 7.546875 -12.09375 C 5.234375 -15.269531 4.078125 -19.125 4.078125 -23.65625 C 4.078125 -27.738281 5.207031 -31.070312 7.46875 -33.65625 C 9.738281 -36.238281 12.753906 -38.164062 16.515625 -39.4375 C 20.285156 -40.707031 24.390625 -41.34375 28.828125 -41.34375 C 32.992188 -41.34375 37.226562 -41.09375 41.53125 -40.59375 C 45.84375 -40.09375 49.96875 -39.5 53.90625 -38.8125 C 57.851562 -38.132812 61.300781 -37.457031 64.25 -36.78125 C 67.195312 -36.101562 69.441406 -35.535156 70.984375 -35.078125 L 70.984375 -36.171875 C 70.984375 -44.691406 68.351562 -51.398438 63.09375 -56.296875 C 57.832031 -61.191406 50.765625 -63.640625 41.890625 -63.640625 C 36.359375 -63.640625 31.9375 -62.957031 28.625 -61.59375 C 25.3125 -60.238281 22.585938 -58.3125 20.453125 -55.8125 C 18.328125 -53.320312 16.359375 -50.359375 14.546875 -46.921875 L 10.0625 -49.765625 C 10.0625 -49.765625 10.285156 -50.554688 10.734375 -52.140625 C 11.191406 -53.734375 12.054688 -55.707031 13.328125 -58.0625 C 14.597656 -60.414062 16.410156 -62.769531 18.765625 -65.125 C 21.117188 -67.488281 24.175781 -69.484375 27.9375 -71.109375 C 31.707031 -72.742188 36.359375 -73.5625 41.890625 -73.5625 C 47.773438 -73.5625 52.894531 -72.8125 57.25 -71.3125 C 61.601562 -69.820312 65.5 -67.535156 68.9375 -64.453125 C 72.382812 -61.367188 75.304688 -57.492188 77.703125 -52.828125 C 80.109375 -48.160156 81.3125 -42.609375 81.3125 -36.171875 Z M 41.890625 -8.5625 C 47.234375 -8.5625 51.898438 -9.648438 55.890625 -11.828125 C 59.878906 -14.003906 63.097656 -16.722656 65.546875 -19.984375 C 67.992188 -23.253906 69.535156 -26.566406 70.171875 -29.921875 C 68.441406 -30.273438 65.878906 -30.722656 62.484375 -31.265625 C 59.085938 -31.816406 55.28125 -32.34375 51.0625 -32.84375 C 46.84375 -33.34375 42.601562 -33.613281 38.34375 -33.65625 C 34.082031 -33.695312 30.140625 -33.398438 26.515625 -32.765625 C 22.890625 -32.140625 19.988281 -31.007812 17.8125 -29.375 C 15.632812 -27.738281 14.546875 -25.425781 14.546875 -22.4375 C 14.546875 -19.257812 15.789062 -16.648438 18.28125 -14.609375 C 20.78125 -12.578125 24.113281 -11.0625 28.28125 -10.0625 C 32.457031 -9.0625 36.992188 -8.5625 41.890625 -8.5625 Z M 41.890625 -8.5625 "/></g></g></g><g fill="#744723" fill-opacity="1"><g transform="translate(446.622261, 258.41807)"><g><path d="M 59.703125 0 C 59.703125 0 60.265625 -0.453125 61.390625 -1.359375 C 62.523438 -2.265625 63.632812 -3.625 64.71875 -5.4375 C 65.8125 -7.25 66.359375 -9.515625 66.359375 -12.234375 L 66.359375 -38.078125 C 66.359375 -42.703125 65.835938 -46.9375 64.796875 -50.78125 C 63.753906 -54.632812 62.007812 -57.738281 59.5625 -60.09375 C 57.113281 -62.457031 53.757812 -63.640625 49.5 -63.640625 C 43.507812 -63.640625 38.382812 -62.414062 34.125 -59.96875 C 29.863281 -57.519531 26.597656 -54.273438 24.328125 -50.234375 C 22.066406 -46.203125 20.9375 -41.832031 20.9375 -37.125 L 20.9375 -12.234375 C 20.9375 -9.515625 21.503906 -7.25 22.640625 -5.4375 C 23.773438 -3.625 24.882812 -2.265625 25.96875 -1.359375 C 27.0625 -0.453125 27.609375 0 27.609375 0 L 3.8125 0 C 3.8125 0 4.375 -0.453125 5.5 -1.359375 C 6.632812 -2.265625 7.769531 -3.625 8.90625 -5.4375 C 10.039062 -7.25 10.609375 -9.515625 10.609375 -12.234375 L 10.609375 -59.828125 C 10.609375 -62.546875 10.039062 -64.8125 8.90625 -66.625 C 7.769531 -68.445312 6.632812 -69.8125 5.5 -70.71875 C 4.375 -71.625 3.8125 -72.078125 3.8125 -72.078125 L 21.078125 -72.078125 L 20.9375 -53.84375 C 23.84375 -59.738281 27.71875 -64.5 32.5625 -68.125 C 37.414062 -71.75 43.0625 -73.5625 49.5 -73.5625 C 56.113281 -73.5625 61.414062 -71.90625 65.40625 -68.59375 C 69.394531 -65.289062 72.269531 -60.851562 74.03125 -55.28125 C 75.800781 -49.707031 76.734375 -43.519531 76.828125 -36.71875 L 76.828125 -12.234375 C 76.828125 -9.515625 77.367188 -7.25 78.453125 -5.4375 C 79.546875 -3.625 80.660156 -2.265625 81.796875 -1.359375 C 82.929688 -0.453125 83.5 0 83.5 0 Z M 59.703125 0 "/></g></g></g><g fill="#744723" fill-opacity="1"><g transform="translate(533.244323, 258.41807)"><g><path d="M 17 -51.265625 C 17 -49.179688 18.039062 -47.476562 20.125 -46.15625 C 22.207031 -44.84375 24.992188 -43.734375 28.484375 -42.828125 C 31.972656 -41.921875 35.78125 -41.082031 39.90625 -40.3125 C 44.03125 -39.539062 48.175781 -38.679688 52.34375 -37.734375 C 56.519531 -36.785156 60.328125 -35.582031 63.765625 -34.125 C 67.210938 -32.675781 70 -30.84375 72.125 -28.625 C 74.257812 -26.40625 75.328125 -23.617188 75.328125 -20.265625 C 75.328125 -18.453125 74.894531 -16.320312 74.03125 -13.875 C 73.175781 -11.425781 71.570312 -9.019531 69.21875 -6.65625 C 66.863281 -4.300781 63.375 -2.351562 58.75 -0.8125 C 54.125 0.726562 48.046875 1.5 40.515625 1.5 C 33.265625 1.5 26.960938 0.0703125 21.609375 -2.78125 C 16.265625 -5.644531 12.140625 -9.410156 9.234375 -14.078125 C 6.335938 -18.742188 4.890625 -23.75 4.890625 -29.09375 L 15.359375 -28.015625 C 15.359375 -23.484375 16.5625 -19.785156 18.96875 -16.921875 C 21.375 -14.066406 24.5 -11.957031 28.34375 -10.59375 C 32.195312 -9.238281 36.253906 -8.5625 40.515625 -8.5625 C 47.953125 -8.5625 53.867188 -9.691406 58.265625 -11.953125 C 62.660156 -14.222656 64.859375 -16.992188 64.859375 -20.265625 C 64.859375 -22.078125 63.816406 -23.570312 61.734375 -24.75 C 59.648438 -25.925781 56.863281 -26.898438 53.375 -27.671875 C 49.882812 -28.441406 46.078125 -29.210938 41.953125 -29.984375 C 37.828125 -30.753906 33.675781 -31.632812 29.5 -32.625 C 25.332031 -33.625 21.523438 -34.894531 18.078125 -36.4375 C 14.640625 -37.976562 11.851562 -39.925781 9.71875 -42.28125 C 7.59375 -44.644531 6.53125 -47.640625 6.53125 -51.265625 C 6.53125 -53.171875 7.117188 -55.390625 8.296875 -57.921875 C 9.472656 -60.460938 11.375 -62.910156 14 -65.265625 C 16.632812 -67.628906 20.082031 -69.601562 24.34375 -71.1875 C 28.601562 -72.769531 33.859375 -73.5625 40.109375 -73.5625 C 46.273438 -73.5625 51.535156 -72.742188 55.890625 -71.109375 C 60.242188 -69.484375 63.800781 -67.332031 66.5625 -64.65625 C 69.332031 -61.988281 71.347656 -59.046875 72.609375 -55.828125 C 73.878906 -52.609375 74.515625 -49.457031 74.515625 -46.375 L 64.046875 -47.59375 C 64.046875 -52.757812 62.140625 -56.722656 58.328125 -59.484375 C 54.523438 -62.253906 48.453125 -63.640625 40.109375 -63.640625 C 31.859375 -63.640625 25.941406 -62.390625 22.359375 -59.890625 C 18.785156 -57.398438 17 -54.523438 17 -51.265625 Z M 17 -51.265625 "/></g></g></g><g fill="#744723" fill-opacity="1"><g transform="translate(86.704598, 343.018005)"><g><path d="M 15.46875 -24.875 C 12.414062 -24.875 10.039062 -23.894531 8.34375 -21.9375 C 6.65625 -19.976562 5.8125 -17.289062 5.8125 -13.875 C 5.8125 -10.507812 6.691406 -7.800781 8.453125 -5.75 C 10.222656 -3.695312 12.613281 -2.671875 15.625 -2.671875 C 19.46875 -2.671875 22.363281 -4.578125 24.3125 -8.390625 L 27.359375 -6.875 C 26.222656 -4.5 24.628906 -2.691406 22.578125 -1.453125 C 20.523438 -0.222656 18.144531 0.390625 15.4375 0.390625 C 12.664062 0.390625 10.269531 -0.179688 8.25 -1.328125 C 6.226562 -2.484375 4.6875 -4.128906 3.625 -6.265625 C 2.5625 -8.410156 2.03125 -10.945312 2.03125 -13.875 C 2.03125 -18.257812 3.210938 -21.695312 5.578125 -24.1875 C 7.953125 -26.675781 11.234375 -27.921875 15.421875 -27.921875 C 18.347656 -27.921875 20.796875 -27.347656 22.765625 -26.203125 C 24.734375 -25.054688 26.175781 -23.359375 27.09375 -21.109375 L 23.5625 -19.9375 C 22.925781 -21.53125 21.898438 -22.75 20.484375 -23.59375 C 19.078125 -24.445312 17.40625 -24.875 15.46875 -24.875 Z M 15.46875 -24.875 "/></g></g></g><g fill="#744723" fill-opacity="1"><g transform="translate(115.580053, 343.018005)"><g><path d="M 22.78125 0 L 19.640625 -8.046875 L 7.109375 -8.046875 L 3.9375 0 L 0.078125 0 L 11.296875 -27.515625 L 15.546875 -27.515625 L 26.59375 0 Z M 13.375 -24.703125 L 13.203125 -24.15625 C 12.867188 -23.070312 12.382812 -21.6875 11.75 -20 L 8.234375 -10.953125 L 18.53125 -10.953125 L 15 -20.03125 C 14.632812 -20.925781 14.269531 -21.941406 13.90625 -23.078125 Z M 13.375 -24.703125 "/></g></g></g><g fill="#744723" fill-opacity="1"><g transform="translate(142.249317, 343.018005)"><g><path d="M 22.71875 0 L 15.578125 -11.421875 L 7.015625 -11.421875 L 7.015625 0 L 3.28125 0 L 3.28125 -27.515625 L 16.21875 -27.515625 C 19.320312 -27.515625 21.710938 -26.816406 23.390625 -25.421875 C 25.078125 -24.035156 25.921875 -22.109375 25.921875 -19.640625 C 25.921875 -17.597656 25.328125 -15.878906 24.140625 -14.484375 C 22.953125 -13.085938 21.3125 -12.207031 19.21875 -11.84375 L 27.015625 0 Z M 22.171875 -19.609375 C 22.171875 -21.203125 21.628906 -22.414062 20.546875 -23.25 C 19.460938 -24.09375 17.898438 -24.515625 15.859375 -24.515625 L 7.015625 -24.515625 L 7.015625 -14.375 L 16.015625 -14.375 C 17.972656 -14.375 19.488281 -14.832031 20.5625 -15.75 C 21.632812 -16.664062 22.171875 -17.953125 22.171875 -19.609375 Z M 22.171875 -19.609375 "/></g></g></g><g fill="#744723" fill-opacity="1"><g transform="translate(171.124772, 343.018005)"><g><path d="M 24.5625 -19.234375 C 24.5625 -16.628906 23.710938 -14.554688 22.015625 -13.015625 C 20.316406 -11.484375 18.007812 -10.71875 15.09375 -10.71875 L 7.015625 -10.71875 L 7.015625 0 L 3.28125 0 L 3.28125 -27.515625 L 14.859375 -27.515625 C 17.941406 -27.515625 20.328125 -26.789062 22.015625 -25.34375 C 23.710938 -23.894531 24.5625 -21.859375 24.5625 -19.234375 Z M 20.8125 -19.1875 C 20.8125 -22.738281 18.675781 -24.515625 14.40625 -24.515625 L 7.015625 -24.515625 L 7.015625 -13.671875 L 14.5625 -13.671875 C 18.726562 -13.671875 20.8125 -15.507812 20.8125 -19.1875 Z M 20.8125 -19.1875 "/></g></g></g><g fill="#744723" fill-opacity="1"><g transform="translate(197.794035, 343.018005)"><g><path d="M 3.28125 0 L 3.28125 -27.515625 L 24.15625 -27.515625 L 24.15625 -24.46875 L 7.015625 -24.46875 L 7.015625 -15.640625 L 22.984375 -15.640625 L 22.984375 -12.625 L 7.015625 -12.625 L 7.015625 -3.046875 L 24.953125 -3.046875 L 24.953125 0 Z M 3.28125 0 "/></g></g></g><g fill="#744723" fill-opacity="1"><g transform="translate(224.463299, 343.018005)"><g><path d="M 14.0625 -24.46875 L 14.0625 0 L 10.34375 0 L 10.34375 -24.46875 L 0.890625 -24.46875 L 0.890625 -27.515625 L 23.5 -27.515625 L 23.5 -24.46875 Z M 14.0625 -24.46875 "/></g></g></g><g fill="#744723" fill-opacity="1"><g transform="translate(248.887369, 343.018005)"><g><path d="M 24.828125 -7.59375 C 24.828125 -5.050781 23.832031 -3.082031 21.84375 -1.6875 C 19.863281 -0.300781 17.070312 0.390625 13.46875 0.390625 C 6.769531 0.390625 2.882812 -1.9375 1.8125 -6.59375 L 5.421875 -7.328125 C 5.835938 -5.671875 6.722656 -4.453125 8.078125 -3.671875 C 9.429688 -2.898438 11.273438 -2.515625 13.609375 -2.515625 C 16.015625 -2.515625 17.867188 -2.925781 19.171875 -3.75 C 20.484375 -4.582031 21.140625 -5.800781 21.140625 -7.40625 C 21.140625 -8.300781 20.9375 -9.023438 20.53125 -9.578125 C 20.125 -10.140625 19.546875 -10.601562 18.796875 -10.96875 C 18.054688 -11.332031 17.171875 -11.640625 16.140625 -11.890625 C 15.117188 -12.140625 13.984375 -12.40625 12.734375 -12.6875 C 10.554688 -13.164062 8.90625 -13.644531 7.78125 -14.125 C 6.65625 -14.613281 5.765625 -15.15625 5.109375 -15.75 C 4.460938 -16.34375 3.96875 -17.035156 3.625 -17.828125 C 3.28125 -18.617188 3.109375 -19.53125 3.109375 -20.5625 C 3.109375 -22.914062 4.007812 -24.726562 5.8125 -26 C 7.613281 -27.28125 10.191406 -27.921875 13.546875 -27.921875 C 16.671875 -27.921875 19.054688 -27.441406 20.703125 -26.484375 C 22.359375 -25.523438 23.519531 -23.894531 24.1875 -21.59375 L 20.515625 -20.953125 C 20.117188 -22.410156 19.351562 -23.46875 18.21875 -24.125 C 17.082031 -24.78125 15.515625 -25.109375 13.515625 -25.109375 C 11.304688 -25.109375 9.625 -24.742188 8.46875 -24.015625 C 7.3125 -23.285156 6.734375 -22.195312 6.734375 -20.75 C 6.734375 -19.90625 6.957031 -19.207031 7.40625 -18.65625 C 7.851562 -18.101562 8.5 -17.632812 9.34375 -17.25 C 10.195312 -16.863281 11.882812 -16.390625 14.40625 -15.828125 C 15.25 -15.640625 16.09375 -15.441406 16.9375 -15.234375 C 17.78125 -15.035156 18.582031 -14.796875 19.34375 -14.515625 C 20.113281 -14.234375 20.832031 -13.90625 21.5 -13.53125 C 22.175781 -13.15625 22.757812 -12.691406 23.25 -12.140625 C 23.75 -11.597656 24.132812 -10.953125 24.40625 -10.203125 C 24.6875 -9.460938 24.828125 -8.59375 24.828125 -7.59375 Z M 24.828125 -7.59375 "/></g></g></g><g fill="#744723" fill-opacity="1"><g transform="translate(275.556632, 343.018005)"><g/></g></g><g fill="#744723" fill-opacity="1"><g transform="translate(286.665594, 343.018005)"><g><path d="M 23.296875 0.234375 C 20.992188 0.234375 19.050781 -0.59375 17.46875 -2.25 C 16.5 -1.394531 15.390625 -0.738281 14.140625 -0.28125 C 12.890625 0.164062 11.578125 0.390625 10.203125 0.390625 C 7.410156 0.390625 5.242188 -0.28125 3.703125 -1.625 C 2.171875 -2.976562 1.40625 -4.851562 1.40625 -7.25 C 1.40625 -10.863281 3.640625 -13.65625 8.109375 -15.625 C 7.671875 -16.425781 7.296875 -17.378906 6.984375 -18.484375 C 6.671875 -19.585938 6.515625 -20.597656 6.515625 -21.515625 C 6.515625 -23.460938 7.109375 -24.972656 8.296875 -26.046875 C 9.492188 -27.128906 11.1875 -27.671875 13.375 -27.671875 C 15.34375 -27.671875 16.925781 -27.175781 18.125 -26.1875 C 19.332031 -25.195312 19.9375 -23.84375 19.9375 -22.125 C 19.9375 -20.582031 19.335938 -19.210938 18.140625 -18.015625 C 16.953125 -16.816406 14.890625 -15.632812 11.953125 -14.46875 C 13.390625 -11.800781 15.296875 -9.117188 17.671875 -6.421875 C 19.140625 -8.585938 20.25 -11.253906 21 -14.421875 L 23.84375 -13.59375 C 23.019531 -10.351562 21.640625 -7.300781 19.703125 -4.4375 C 20.953125 -3.15625 22.304688 -2.515625 23.765625 -2.515625 C 24.679688 -2.515625 25.441406 -2.617188 26.046875 -2.828125 L 26.046875 -0.1875 C 25.316406 0.09375 24.398438 0.234375 23.296875 0.234375 Z M 16.96875 -22.125 C 16.96875 -23.0625 16.640625 -23.820312 15.984375 -24.40625 C 15.335938 -25 14.453125 -25.296875 13.328125 -25.296875 C 12.078125 -25.296875 11.128906 -24.960938 10.484375 -24.296875 C 9.835938 -23.628906 9.515625 -22.703125 9.515625 -21.515625 C 9.515625 -20.035156 9.9375 -18.445312 10.78125 -16.75 C 12.476562 -17.4375 13.726562 -18.035156 14.53125 -18.546875 C 15.332031 -19.054688 15.9375 -19.601562 16.34375 -20.1875 C 16.757812 -20.769531 16.96875 -21.414062 16.96875 -22.125 Z M 15.515625 -4.234375 C 12.941406 -7.285156 10.867188 -10.257812 9.296875 -13.15625 C 6.222656 -11.851562 4.6875 -9.894531 4.6875 -7.28125 C 4.6875 -5.707031 5.191406 -4.460938 6.203125 -3.546875 C 7.210938 -2.628906 8.585938 -2.171875 10.328125 -2.171875 C 11.253906 -2.171875 12.175781 -2.347656 13.09375 -2.703125 C 14.019531 -3.054688 14.828125 -3.566406 15.515625 -4.234375 Z M 15.515625 -4.234375 "/></g></g></g><g fill="#744723" fill-opacity="1"><g transform="translate(313.334858, 343.018005)"><g/></g></g><g fill="#744723" fill-opacity="1"><g transform="translate(324.44382, 343.018005)"><g><path d="M 7.015625 -24.46875 L 7.015625 -14.234375 L 22.359375 -14.234375 L 22.359375 -11.140625 L 7.015625 -11.140625 L 7.015625 0 L 3.28125 0 L 3.28125 -27.515625 L 22.828125 -27.515625 L 22.828125 -24.46875 Z M 7.015625 -24.46875 "/></g></g></g><g fill="#744723" fill-opacity="1"><g transform="translate(348.86789, 343.018005)"><g><path d="M 3.28125 0 L 3.28125 -27.515625 L 7.015625 -27.515625 L 7.015625 -3.046875 L 20.90625 -3.046875 L 20.90625 0 Z M 3.28125 0 "/></g></g></g><g fill="#744723" fill-opacity="1"><g transform="translate(371.105315, 343.018005)"><g><path d="M 29.1875 -13.875 C 29.1875 -11 28.632812 -8.476562 27.53125 -6.3125 C 26.4375 -4.15625 24.859375 -2.5 22.796875 -1.34375 C 20.742188 -0.1875 18.316406 0.390625 15.515625 0.390625 C 12.691406 0.390625 10.253906 -0.179688 8.203125 -1.328125 C 6.160156 -2.472656 4.597656 -4.128906 3.515625 -6.296875 C 2.429688 -8.460938 1.890625 -10.988281 1.890625 -13.875 C 1.890625 -18.28125 3.09375 -21.722656 5.5 -24.203125 C 7.914062 -26.679688 11.269531 -27.921875 15.5625 -27.921875 C 18.363281 -27.921875 20.789062 -27.363281 22.84375 -26.25 C 24.894531 -25.132812 26.460938 -23.515625 27.546875 -21.390625 C 28.640625 -19.273438 29.1875 -16.769531 29.1875 -13.875 Z M 25.375 -13.875 C 25.375 -17.300781 24.519531 -19.988281 22.8125 -21.9375 C 21.101562 -23.894531 18.6875 -24.875 15.5625 -24.875 C 12.40625 -24.875 9.96875 -23.910156 8.25 -21.984375 C 6.539062 -20.054688 5.6875 -17.351562 5.6875 -13.875 C 5.6875 -10.425781 6.550781 -7.691406 8.28125 -5.671875 C 10.019531 -3.648438 12.429688 -2.640625 15.515625 -2.640625 C 18.691406 -2.640625 21.128906 -3.617188 22.828125 -5.578125 C 24.523438 -7.535156 25.375 -10.300781 25.375 -13.875 Z M 25.375 -13.875 "/></g></g></g><g fill="#744723" fill-opacity="1"><g transform="translate(402.206463, 343.018005)"><g><path d="M 29.1875 -13.875 C 29.1875 -11 28.632812 -8.476562 27.53125 -6.3125 C 26.4375 -4.15625 24.859375 -2.5 22.796875 -1.34375 C 20.742188 -0.1875 18.316406 0.390625 15.515625 0.390625 C 12.691406 0.390625 10.253906 -0.179688 8.203125 -1.328125 C 6.160156 -2.472656 4.597656 -4.128906 3.515625 -6.296875 C 2.429688 -8.460938 1.890625 -10.988281 1.890625 -13.875 C 1.890625 -18.28125 3.09375 -21.722656 5.5 -24.203125 C 7.914062 -26.679688 11.269531 -27.921875 15.5625 -27.921875 C 18.363281 -27.921875 20.789062 -27.363281 22.84375 -26.25 C 24.894531 -25.132812 26.460938 -23.515625 27.546875 -21.390625 C 28.640625 -19.273438 29.1875 -16.769531 29.1875 -13.875 Z M 25.375 -13.875 C 25.375 -17.300781 24.519531 -19.988281 22.8125 -21.9375 C 21.101562 -23.894531 18.6875 -24.875 15.5625 -24.875 C 12.40625 -24.875 9.96875 -23.910156 8.25 -21.984375 C 6.539062 -20.054688 5.6875 -17.351562 5.6875 -13.875 C 5.6875 -10.425781 6.550781 -7.691406 8.28125 -5.671875 C 10.019531 -3.648438 12.429688 -2.640625 15.515625 -2.640625 C 18.691406 -2.640625 21.128906 -3.617188 22.828125 -5.578125 C 24.523438 -7.535156 25.375 -10.300781 25.375 -13.875 Z M 25.375 -13.875 "/></g></g></g><g fill="#744723" fill-opacity="1"><g transform="translate(433.307611, 343.018005)"><g><path d="M 22.71875 0 L 15.578125 -11.421875 L 7.015625 -11.421875 L 7.015625 0 L 3.28125 0 L 3.28125 -27.515625 L 16.21875 -27.515625 C 19.320312 -27.515625 21.710938 -26.816406 23.390625 -25.421875 C 25.078125 -24.035156 25.921875 -22.109375 25.921875 -19.640625 C 25.921875 -17.597656 25.328125 -15.878906 24.140625 -14.484375 C 22.953125 -13.085938 21.3125 -12.207031 19.21875 -11.84375 L 27.015625 0 Z M 22.171875 -19.609375 C 22.171875 -21.203125 21.628906 -22.414062 20.546875 -23.25 C 19.460938 -24.09375 17.898438 -24.515625 15.859375 -24.515625 L 7.015625 -24.515625 L 7.015625 -14.375 L 16.015625 -14.375 C 17.972656 -14.375 19.488281 -14.832031 20.5625 -15.75 C 21.632812 -16.664062 22.171875 -17.953125 22.171875 -19.609375 Z M 22.171875 -19.609375 "/></g></g></g><g fill="#744723" fill-opacity="1"><g transform="translate(462.183066, 343.018005)"><g><path d="M 3.6875 0 L 3.6875 -27.515625 L 7.421875 -27.515625 L 7.421875 0 Z M 3.6875 0 "/></g></g></g><g fill="#744723" fill-opacity="1"><g transform="translate(473.292028, 343.018005)"><g><path d="M 21.125 0 L 6.40625 -23.421875 L 6.5 -21.53125 L 6.59375 -18.28125 L 6.59375 0 L 3.28125 0 L 3.28125 -27.515625 L 7.609375 -27.515625 L 22.484375 -3.921875 C 22.328125 -6.472656 22.25 -8.320312 22.25 -9.46875 L 22.25 -27.515625 L 25.609375 -27.515625 L 25.609375 0 Z M 21.125 0 "/></g></g></g><g fill="#744723" fill-opacity="1"><g transform="translate(502.167483, 343.018005)"><g><path d="M 2.015625 -13.875 C 2.015625 -18.34375 3.210938 -21.800781 5.609375 -24.25 C 8.003906 -26.695312 11.367188 -27.921875 15.703125 -27.921875 C 18.742188 -27.921875 21.210938 -27.40625 23.109375 -26.375 C 25.015625 -25.34375 26.484375 -23.695312 27.515625 -21.4375 L 23.953125 -20.375 C 23.171875 -21.9375 22.09375 -23.078125 20.71875 -23.796875 C 19.351562 -24.515625 17.644531 -24.875 15.59375 -24.875 C 12.414062 -24.875 9.988281 -23.910156 8.3125 -21.984375 C 6.632812 -20.066406 5.796875 -17.363281 5.796875 -13.875 C 5.796875 -10.40625 6.6875 -7.664062 8.46875 -5.65625 C 10.25 -3.644531 12.71875 -2.640625 15.875 -2.640625 C 17.664062 -2.640625 19.335938 -2.910156 20.890625 -3.453125 C 22.453125 -4.003906 23.710938 -4.75 24.671875 -5.6875 L 24.671875 -10.640625 L 16.453125 -10.640625 L 16.453125 -13.765625 L 28.109375 -13.765625 L 28.109375 -4.28125 C 26.648438 -2.789062 24.863281 -1.640625 22.75 -0.828125 C 20.632812 -0.015625 18.34375 0.390625 15.875 0.390625 C 13 0.390625 10.519531 -0.179688 8.4375 -1.328125 C 6.351562 -2.472656 4.757812 -4.125 3.65625 -6.28125 C 2.5625 -8.4375 2.015625 -10.96875 2.015625 -13.875 Z M 2.015625 -13.875 "/></g></g></g></g></g></svg>